<?xml version="1.0" encoding="UTF-8"?>
<svg width="30px" height="30px" viewBox="0 0 30 30" version="1.1" xmlns="http://www.w3.org/2000/svg" xmlns:xlink="http://www.w3.org/1999/xlink">
    <!-- Generator: Sketch 39.1 (31720) - http://www.bohemiancoding.com/sketch -->
    <title>closeBtn2</title>
    <desc>Created with Sketch.</desc>
    <defs></defs>
    <g stroke="none" stroke-width="1" fill="none" fill-rule="evenodd">
        <g id="menu" transform="translate(-661.000000, -531.000000)">
            <g id="Group-2" transform="translate(592.000000, 165.000000)">
                <g id="closeBtn2" transform="translate(70.000000, 367.000000)">
                    <path d="M13.8449629,13.1849966 L8.73343661,8.07347028 C8.54626793,7.8863016 8.25250221,7.88801287 8.07025754,8.07025754 C7.89334274,8.24717234 7.88945126,8.54941759 8.07347028,8.73343661 L13.1849966,13.8449629 L8.07347028,18.9564892 C7.8863016,19.1436579 7.88801287,19.4374236 8.07025754,19.6196683 C8.24717234,19.7965831 8.54941759,19.8004746 8.73343661,19.6164556 L13.8449629,14.5049293 L18.9564892,19.6164556 C19.1436579,19.8036242 19.4374236,19.801913 19.6196683,19.6196683 C19.7965831,19.4427535 19.8004746,19.1405083 19.6164556,18.9564892 L14.5049293,13.8449629 L19.6164556,8.73343661 C19.8036242,8.54626793 19.801913,8.25250221 19.6196683,8.07025754 C19.4427535,7.89334274 19.1405083,7.88945126 18.9564892,8.07347028 L13.8449629,13.1849966 Z" id="Combined-Shape" fill="#EEEEEE"></path>
                    <path d="M14,28 C21.7319865,28 28,21.7319865 28,14 C28,6.2680135 21.7319865,0 14,0 C6.2680135,0 0,6.2680135 0,14 C0,21.7319865 6.2680135,28 14,28 Z" id="Combined-Shape" stroke="#EEEEEE"></path>
                </g>
            </g>
        </g>
    </g>
</svg>